<?xml version="1.0" standalone="no"?>
<!DOCTYPE svg PUBLIC "-//W3C//DTD SVG 20010904//EN"
 "http://www.w3.org/TR/2001/REC-SVG-20010904/DTD/svg10.dtd">
<svg version="1.0" xmlns="http://www.w3.org/2000/svg"
 width="512.000000pt" height="512.000000pt" viewBox="0 0 512.000000 512.000000"
 preserveAspectRatio="xMidYMid meet">
<metadata>
Created by potrace 1.16, written by Peter Selinger 2001-2019
</metadata>
<g transform="translate(0.000000,512.000000) scale(0.100000,-0.100000)"
fill="#000000" stroke="none">
<path d="M1677 5096 c-99 -41 -161 -102 -211 -206 l-21 -45 -5 -1255 -5 -1255
-35 -6 c-46 -7 -89 -31 -121 -66 -30 -32 -59 -85 -59 -108 0 -8 -6 -15 -12
-15 -26 0 -147 -52 -218 -94 -50 -29 -80 -41 -90 -36 -35 19 -109 22 -162 6
-41 -12 -65 -27 -104 -68 -112 -117 -147 -179 -148 -263 -1 -46 5 -72 25 -110
l25 -50 -23 -73 c-13 -40 -28 -112 -35 -160 l-12 -87 -45 -30 c-63 -42 -91
-99 -91 -185 0 -73 29 -203 59 -260 26 -52 91 -97 159 -111 56 -11 58 -13 101
-79 24 -38 69 -94 101 -126 55 -55 57 -59 52 -101 -7 -60 14 -125 55 -173 51
-59 206 -133 291 -138 74 -5 135 15 175 56 l26 27 170 -1 169 -1 35 -30 c79
-69 183 -71 318 -5 150 72 192 125 194 243 l1 67 67 73 c38 40 82 96 100 125
30 49 35 53 88 63 69 14 131 57 158 109 31 61 61 189 61 261 0 84 -39 158
-100 193 -31 18 -40 29 -40 51 0 39 -28 171 -50 237 -18 54 -18 56 0 86 58 92
44 194 -40 306 -112 148 -209 194 -321 154 -34 -12 -39 -11 -110 31 -41 24
-108 55 -151 70 -72 26 -77 30 -88 65 -21 72 -94 135 -170 147 l-35 6 -3 1226
-2 1225 27 55 c34 66 87 105 162 119 73 14 2589 14 2662 0 73 -14 127 -53 161
-119 l28 -53 0 -1828 0 -1828 -28 -53 c-34 -66 -88 -105 -161 -119 -33 -6
-345 -10 -812 -10 -746 0 -759 0 -779 -20 -27 -27 -27 -83 0 -110 20 -20 33
-20 830 -20 794 0 810 0 865 21 71 26 143 84 183 145 66 104 62 -20 62 1994 0
2029 5 1894 -68 2000 -45 66 -103 111 -177 139 -56 21 -61 21 -1438 21 l-1382
0 -58 -24z m-39 -2939 c12 -11 22 -37 26 -66 8 -60 24 -75 111 -102 85 -26
190 -77 265 -130 65 -45 93 -48 140 -14 41 30 59 31 94 4 29 -23 109 -125 119
-152 9 -23 -7 -54 -46 -90 -35 -33 -34 -47 17 -193 27 -75 38 -128 45 -205 8
-94 11 -105 35 -126 15 -13 35 -23 45 -23 28 0 61 -38 61 -71 0 -50 -30 -167
-50 -191 -15 -19 -26 -22 -79 -20 -72 3 -85 -7 -141 -109 -19 -34 -76 -106
-126 -159 -50 -52 -94 -104 -98 -114 -4 -11 1 -40 10 -67 16 -43 16 -50 2 -71
-8 -13 -50 -40 -92 -61 -100 -49 -130 -48 -169 10 -34 52 -55 58 -146 44 -89
-14 -193 -14 -282 0 -91 14 -112 8 -146 -44 -39 -58 -70 -60 -169 -11 -42 20
-83 48 -91 61 -14 22 -14 28 0 73 9 28 13 58 10 68 -4 9 -47 60 -97 113 -53
55 -111 129 -139 177 -26 44 -56 83 -66 87 -10 3 -42 5 -70 4 -36 -2 -57 3
-68 13 -19 20 -53 140 -53 190 0 42 27 78 59 78 11 0 31 10 46 23 22 19 26 33
35 122 11 112 25 172 65 274 25 62 26 73 15 101 -7 17 -21 35 -32 41 -26 14
-40 53 -29 82 14 35 109 147 136 159 20 9 32 6 69 -16 24 -14 54 -26 66 -26
12 0 59 24 104 54 89 60 140 84 243 116 81 25 103 43 103 84 0 41 20 78 50 94
38 20 192 12 218 -11z"/>
<path d="M1385 1876 c-134 -26 -258 -83 -330 -150 -40 -38 -45 -71 -15 -109
34 -43 64 -43 139 2 90 55 149 80 229 96 128 28 246 11 377 -54 198 -98 325
-302 325 -523 0 -166 -56 -303 -170 -419 -150 -152 -361 -211 -565 -159 -205
52 -376 221 -430 426 -30 113 -16 296 31 386 20 40 18 94 -6 118 -20 20 -63
26 -95 14 -38 -15 -91 -163 -104 -295 -37 -360 183 -689 534 -799 95 -30 264
-38 362 -17 153 33 272 97 383 207 88 86 147 181 186 295 36 106 45 294 20
408 -21 92 -78 211 -142 296 -91 121 -258 231 -404 266 -94 22 -241 27 -325
11z"/>
<path d="M1400 1328 c-176 -106 -131 -374 71 -417 98 -21 196 21 246 106 24
40 28 59 28 118 -1 136 -91 224 -230 225 -51 0 -70 -5 -115 -32z"/>
<path d="M1910 4398 c-11 -12 -20 -35 -20 -53 0 -18 9 -41 20 -53 l21 -22
1189 0 1189 0 20 26 c12 15 21 37 21 49 0 12 -9 34 -21 49 l-20 26 -1189 0
-1189 0 -21 -22z"/>
<path d="M1910 4098 c-11 -12 -20 -35 -20 -53 0 -18 9 -41 20 -53 l21 -22
1189 0 1189 0 20 26 c12 15 21 37 21 49 0 12 -9 34 -21 49 l-20 26 -1189 0
-1189 0 -21 -22z"/>
<path d="M1910 3798 c-11 -12 -20 -35 -20 -53 0 -18 9 -41 20 -53 l21 -22 789
0 789 0 20 26 c27 34 27 64 0 98 l-20 26 -789 0 -789 0 -21 -22z"/>
<path d="M1910 3198 c-11 -12 -20 -35 -20 -53 0 -18 9 -41 20 -53 l21 -22
1189 0 1189 0 20 26 c12 15 21 37 21 49 0 12 -9 34 -21 49 l-20 26 -1189 0
-1189 0 -21 -22z"/>
<path d="M1910 2898 c-11 -12 -20 -35 -20 -53 0 -18 9 -41 20 -53 l21 -22
1189 0 1189 0 20 26 c12 15 21 37 21 49 0 12 -9 34 -21 49 l-20 26 -1189 0
-1189 0 -21 -22z"/>
<path d="M1910 2598 c-11 -12 -20 -35 -20 -53 0 -18 9 -41 20 -53 l21 -22 789
0 789 0 20 26 c27 34 27 64 0 98 l-20 26 -789 0 -789 0 -21 -22z"/>
</g>
</svg>
